/vscmnt/brussel_pixiu_data/_data_brussel/112/vsc11236/PredSimResults/SUBJ11mtu3D/worker3.mot
version=1
nRows=8
nColumns=50
inDegrees=yes
endheader
                time	         pelvis_tilt	         pelvis_list	     pelvis_rotation	           pelvis_tx	           pelvis_ty	           pelvis_tz	       hip_flexion_r	     hip_adduction_r	      hip_rotation_r	        knee_angle_r	       ankle_angle_r	         mtp_angle_r	       hip_flexion_l	     hip_adduction_l	      hip_rotation_l	        knee_angle_l	       ankle_angle_l	         mtp_angle_l	    lumbar_extension	      lumbar_bending	     lumbar_rotation	 ercspn_r/activation	 intobl_r/activation	 extobl_r/activation	    abd_r/activation	    add_r/activation	hamstrings_r/activation	bifemsh_r/activation	glut_max_r/activation	iliopsoas_r/activation	rect_fem_r/activation	  vasti_r/activation	gastroc_r/activation	 soleus_r/activation	tib_ant_r/activation	 ercspn_l/activation	 intobl_l/activation	 extobl_l/activation	    abd_l/activation	    add_l/activation	hamstrings_l/activation	bifemsh_l/activation	glut_max_l/activation	iliopsoas_l/activation	rect_fem_l/activation	  vasti_l/activation	gastroc_l/activation	 soleus_l/activation	tib_ant_l/activation	
          0.66074080	         -3.74193687	          0.70512596	         -5.67989338	          0.72681488	          0.94201123	          0.00795142	        -13.22480395	         -2.62556083	         -2.11403196	        -11.57838341	         11.80869532	         29.13815293	         31.30770532	         -2.52656388	         -4.74860246	         -9.67095450	          2.38502732	          0.26204836	        -14.17587278	          1.48256734	          3.73215357	          0.02233060	          0.01000000	          0.00999999	          0.03653353	          0.01489016	          0.01509573	          0.17879084	          0.02217125	          0.01220334	          0.01000007	          0.01000000	          0.11731335	          0.28379222	          0.01249683	          0.03210060	          0.19015332	          0.04915652	          0.00999999	          0.18270709	          0.04430382	          0.12491743	          0.08980699	          0.06710125	          0.03642991	          0.01138706	          0.00999999	          0.00999999	          0.42125696	
          0.67395561	         -3.81563637	          0.75554210	         -5.78544794	          0.74533392	          0.94004276	          0.00671078	        -13.88060971	         -2.88495418	         -2.41377333	        -12.21763369	         10.96945568	         30.89252872	         30.96704902	         -2.39431823	         -4.92335583	        -10.84660272	          1.90242225	          0.21392667	        -13.72542515	          1.04433536	          3.96339306	          0.02200542	          0.00999999	          0.01000000	          0.02993945	          0.01220258	          0.02397991	          0.14652022	          0.01816949	          0.01000074	          0.01000000	          0.01000000	          0.09613902	          0.26226894	          0.01024123	          0.02630665	          0.15583184	          0.04028407	          0.05595367	          0.17245934	          0.05236997	          0.10237062	          0.10976470	          0.05498989	          0.02985454	          0.00999999	          0.01220247	          0.01220246	          0.46719702	
          0.68717043	         -3.87355232	          0.79853199	         -5.86586606	          0.76405643	          0.93844799	          0.00539500	        -14.36452840	         -3.14736761	         -2.72520118	        -13.18125011	          9.97500662	         32.71374037	         30.62534600	         -2.28271090	         -5.10306959	        -12.06617920	          1.30345529	          0.20649867	        -13.26219321	          0.61225876	          4.18235253	          0.04257542	          0.00999999	          0.01000000	          0.02453557	          0.01000010	          0.01965172	          0.12007424	          0.01489001	          0.01000004	          0.01000002	          0.01000724	          0.07878653	          0.23815259	          0.00999999	          0.02968134	          0.12770517	          0.03301305	          0.10620359	          0.21582926	          0.04291754	          0.08389337	          0.13026723	          0.04506456	          0.02446599	          0.01000000	          0.01000000	          0.00999999	          0.52780636	
          0.70038524	         -3.91592608	          0.82640466	         -5.91918828	          0.78271602	          0.93740708	          0.00400329	        -14.56938238	         -3.40740294	         -3.04193569	        -14.62034852	          8.81346391	         34.58571620	         30.40115141	         -2.19335933	         -5.29989546	        -13.48106305	          0.64397064	          0.16266584	        -12.81802925	          0.19658712	          4.38506190	          0.06763506	          0.00999999	          0.00999999	          0.02010705	          0.07377425	          0.02385035	          0.09840159	          0.01220246	          0.01000003	          0.01000001	          0.01000010	          0.06456606	          0.20498420	          0.00999999	          0.03963652	          0.10465518	          0.02705440	          0.13413328	          0.27034152	          0.04155907	          0.06875115	          0.13224413	          0.03693069	          0.02005003	          0.05205602	          0.00999999	          0.00999999	          0.57223496	
          0.71360006	         -3.94278671	          0.83702507	         -5.94625841	          0.80121378	          0.93700731	          0.00255502	        -14.41364833	         -3.66566766	         -3.36820251	        -16.66307582	          7.49503411	         36.42378454	         30.23921148	         -2.11858458	         -5.48344763	        -15.06496439	          0.28289837	          0.10974544	        -12.40023768	         -0.19990375	          4.56857905	          0.09169815	          0.00999999	          0.00999999	          0.01647786	          0.14729318	          0.02224425	          0.08064073	          0.01000000	          0.01000057	          0.01000000	          0.00999999	          0.05291229	          0.16798583	          0.00999999	          0.03248240	          0.08576558	          0.02217125	          0.15978451	          0.30475356	          0.04376883	          0.05634200	          0.14276165	          0.03026493	          0.01643113	          0.09617097	          0.01000000	          0.00999999	          0.57761951	
          0.72681488	         -3.95620982	          0.83178789	         -5.94494481	          0.81941042	          0.93734490	          0.00107592	        -13.81480578	         -3.92742302	         -3.70810849	        -19.42441215	          6.02293520	         38.06582624	         30.05269937	         -2.04135364	         -5.61271519	        -16.66693742	          0.29586770	          0.06343509	        -12.01994902	         -0.57972657	          4.72733050	          0.11129341	          0.00999999	          0.00999999	          0.01350371	          0.19904969	          0.04117921	          0.06608559	          0.00999999	          0.01220316	          0.00999999	          0.00999999	          0.04336195	          0.13766544	          0.00999999	          0.02661954	          0.07028543	          0.01816948	          0.17576838	          0.32812081	          0.04599255	          0.04617263	          0.14607641	          0.02480230	          0.01346541	          0.12341437	          0.01000000	          0.00999999	          0.54768991	
          0.74002969	         -3.95742405	          0.80912760	         -5.91286356	          0.83719166	          0.93842810	         -0.00040008	        -12.73064102	         -4.19663989	         -4.08949977	        -22.95576360	          4.47012400	         39.13670841	         29.78539336	         -1.95341267	         -5.66635135	        -18.16672794	          0.63138864	          0.03564728	        -11.68577848	         -0.94383032	          4.85621864	          0.11611226	          0.01000000	          0.00999999	          0.01106637	          0.23728214	          0.05469643	          0.05415757	          0.00999999	          0.01000060	          0.00999999	          0.00999999	          0.03553539	          0.11281769	          0.00999999	          0.02181488	          0.05759935	          0.01489000	          0.18152259	          0.34267195	          0.04987880	          0.03783878	          0.13724814	          0.02032564	          0.01103499	          0.14017348	          0.00999999	          0.00999999	          0.49041665	
          0.75324451	         -3.94690420	          0.75968510	         -5.84608562	          0.85451789	          0.94019482	         -0.00183927	        -11.16202174	         -4.47773917	         -4.52641806	        -27.25333849	          2.93379133	         39.18450919	         29.38245492	         -1.85930402	         -5.64325032	        -19.44661104	          1.20380528	          0.05737768	        -11.39967831	         -1.28515391	          4.95003609	          0.09940598	          0.01000005	          0.01246724	          0.00999999	          0.28879379	          0.04915654	          0.04469957	          0.00999999	          0.01000001	          0.00999999	          0.00999999	          0.02912147	          0.09245480	          0.00999999	          0.01787743	          0.04720303	          0.01220245	          0.18341775	          0.33070749	          0.05541895	          0.03100922	          0.11371211	          0.01665699	          0.01000000	          0.18526384	          0.01000000	          0.00999999	          0.42227085	
